<mxfile host="app.diagrams.net" modified="2023-11-20T16:44:09.789Z" agent="Mozilla/5.0 (Windows NT 10.0; Win64; x64) AppleWebKit/537.36 (KHTML, like Gecko) Chrome/119.0.0.0 Safari/537.36" etag="f-NuWCA0Ka0GMSlANHHx" version="22.1.3" type="github">
  <diagram name="Page-1" id="M_9IpZ-tIkj7_0qx-xzP">
    <mxGraphModel dx="880" dy="1570" grid="1" gridSize="10" guides="1" tooltips="1" connect="1" arrows="1" fold="1" page="1" pageScale="1" pageWidth="850" pageHeight="1100" math="0" shadow="0">
      <root>
        <mxCell id="0" />
        <mxCell id="1" parent="0" />
        <mxCell id="2" value="Symptoms" style="ellipse;aspect=fixed;strokeWidth=2;whiteSpace=wrap;" parent="1" vertex="1">
          <mxGeometry x="10" y="-93.5" width="94" height="94" as="geometry" />
        </mxCell>
        <mxCell id="3" value="Disease" style="ellipse;aspect=fixed;strokeWidth=2;whiteSpace=wrap;" parent="1" vertex="1">
          <mxGeometry x="260" y="-106" width="119" height="119" as="geometry" />
        </mxCell>
        <mxCell id="4" value="Test results" style="ellipse;aspect=fixed;strokeWidth=2;whiteSpace=wrap;rotation=0;" parent="1" vertex="1">
          <mxGeometry x="280" y="130" width="119" height="119" as="geometry" />
        </mxCell>
        <mxCell id="6" value="" style="curved=1;startArrow=none;endArrow=block;exitX=0.9974235372340425;exitY=0.49642619680851063;entryX=-0.0020351890756302522;entryY=0.5013786764705882;" parent="1" source="2" target="3" edge="1">
          <mxGeometry relative="1" as="geometry">
            <Array as="points" />
          </mxGeometry>
        </mxCell>
        <mxCell id="7" value="" style="curved=1;startArrow=none;endArrow=block;" parent="1" edge="1">
          <mxGeometry relative="1" as="geometry">
            <Array as="points" />
            <mxPoint x="340" y="10" as="sourcePoint" />
            <mxPoint x="340" y="130" as="targetPoint" />
          </mxGeometry>
        </mxCell>
      </root>
    </mxGraphModel>
  </diagram>
</mxfile>
